<?xml version="1.0" standalone="no"?>
<!DOCTYPE svg PUBLIC "-//W3C//DTD SVG 20010904//EN"
 "http://www.w3.org/TR/2001/REC-SVG-20010904/DTD/svg10.dtd">
<svg version="1.0" xmlns="http://www.w3.org/2000/svg"
 width="460.000000pt" height="460.000000pt" viewBox="0 0 460.000000 460.000000"
 preserveAspectRatio="xMidYMid meet">
<metadata>
Created by potrace 1.16, written by Peter Selinger 2001-2019
</metadata>
<g transform="translate(0.000000,460.000000) scale(0.100000,-0.100000)"
fill="#000000" stroke="none">
<path d="M1 3960 c-1 -421 2 -640 9 -640 5 0 10 -5 10 -11 0 -5 -4 -8 -9 -5
-5 4 -9 -100 -10 -243 0 -210 2 -250 14 -255 8 -3 15 -11 14 -18 0 -10 -2 -10
-6 0 -16 41 -21 -19 -22 -283 -1 -182 2 -295 8 -295 22 0 39 13 35 25 -3 7 -1
16 5 20 6 3 11 11 11 16 0 6 -5 7 -10 4 -12 -7 -13 5 -2 21 10 16 121 43 128
32 3 -5 30 -8 60 -7 41 2 54 6 50 16 -3 7 1 13 10 13 9 0 12 -5 8 -12 -4 -7 2
-5 14 6 13 11 28 16 38 12 10 -4 21 -1 26 6 6 11 8 10 8 0 0 -7 5 -10 10 -7 6
4 17 1 25 -5 10 -8 15 -9 15 -2 0 6 6 9 14 6 30 -12 115 -10 120 2 3 7 0 15
-7 18 -9 3 -9 5 1 5 15 1 16 61 1 61 -8 0 -8 4 0 14 6 8 10 30 8 50 -2 20 -1
39 3 41 5 3 13 29 20 57 6 29 14 62 16 73 4 16 2 14 -10 -5 -8 -14 -12 -28
-10 -32 3 -5 1 -8 -5 -8 -16 0 -5 51 22 108 6 13 13 18 17 12 4 -6 13 22 20
62 7 40 29 114 48 163 18 50 41 108 49 130 8 22 22 49 32 60 9 11 23 32 30 47
8 14 23 29 35 32 16 4 18 8 9 17 -9 9 -5 18 18 38 29 26 37 47 19 53 -6 2 -6
8 0 18 8 13 10 12 10 -2 0 -10 5 -18 10 -18 6 0 10 5 10 10 0 6 12 23 28 39
60 63 93 97 111 115 11 10 18 23 17 30 -2 6 -1 8 1 4 9 -15 25 -8 19 8 -3 8
-2 13 3 10 11 -7 33 19 24 28 -4 4 -1 5 7 1 15 -5 70 38 70 54 0 5 14 14 31
22 18 7 45 24 61 37 23 19 26 27 16 34 -9 7 -6 8 10 5 12 -3 22 -2 22 3 0 4
15 13 33 21 17 7 34 15 37 18 18 20 73 51 109 61 24 6 41 17 41 25 0 8 5 15
11 15 5 0 7 -4 4 -10 -10 -17 11 -11 63 16 93 48 352 114 450 114 40 0 71 3
69 8 -3 4 49 5 115 3 99 -2 119 -1 113 10 -5 8 1 6 12 -3 12 -11 36 -18 64
-18 48 0 192 -32 252 -55 20 -8 37 -11 37 -6 0 5 9 7 20 4 11 -3 17 -9 14 -14
-3 -5 2 -9 11 -9 25 0 234 -98 302 -142 51 -33 65 -38 82 -29 24 13 34 14 27
2 -3 -5 1 -11 9 -15 8 -3 15 -10 15 -16 0 -7 -6 -8 -19 0 -34 18 -37 11 -5 -9
18 -11 35 -24 38 -30 4 -6 12 -11 18 -11 6 0 8 3 5 6 -9 9 11 44 26 44 7 0 8
-3 2 -8 -17 -12 -17 -35 0 -28 9 3 14 2 10 -3 -3 -5 1 -12 7 -15 7 -4 2 -4
-12 -2 -22 4 -23 4 -8 -8 9 -7 25 -21 35 -32 10 -11 15 -15 11 -10 -4 5 -2 18
4 30 10 18 9 19 -4 8 -14 -11 -16 -9 -14 13 1 31 10 32 30 3 11 -16 12 -24 4
-29 -7 -5 -4 -14 10 -30 20 -20 22 -21 28 -5 4 11 2 21 -6 26 -9 6 -8 10 6 18
18 10 18 11 1 29 -24 27 -22 33 13 33 17 0 30 5 30 10 0 6 -17 10 -38 10 -28
0 -47 8 -72 30 -38 34 -36 51 3 20 40 -32 51 -23 15 13 -19 18 -40 52 -47 75
-13 39 -16 41 -31 27 -16 -15 -17 -14 -12 10 3 18 9 24 19 21 8 -3 17 -6 19
-6 2 0 4 -6 4 -14 0 -8 4 -17 10 -21 5 -3 5 8 -2 26 -8 24 -8 33 2 39 7 4 10
15 7 24 -4 10 -1 16 9 16 10 0 14 6 10 15 -3 10 1 15 14 15 10 0 22 -9 25 -20
3 -11 14 -20 24 -20 14 0 16 -7 13 -37 -2 -21 -9 -44 -14 -50 -7 -9 -7 -13 -1
-13 6 0 9 -11 8 -25 -2 -14 2 -28 8 -32 7 -4 3 -9 -9 -14 -17 -7 -17 -8 -1 -8
9 -1 17 -8 17 -16 0 -7 -8 -19 -17 -24 -16 -9 -14 -10 9 -11 33 0 40 -10 42
-67 2 -48 30 -83 50 -63 5 5 19 10 30 10 21 0 17 -10 -6 -14 -20 -3 -55 -25
-40 -26 19 0 14 -18 -8 -25 -27 -9 -26 -35 2 -35 21 0 21 0 2 -16 -10 -8 -14
-13 -7 -10 6 4 14 0 16 -6 4 -10 6 -10 6 0 1 6 5 12 9 12 5 0 8 -10 7 -22 -2
-27 22 -48 45 -40 13 5 13 3 1 -11 -11 -15 -11 -18 7 -24 12 -5 21 -12 22 -18
0 -5 9 -10 20 -9 15 0 19 -5 16 -27 -2 -19 4 -35 20 -50 12 -11 28 -34 34 -50
13 -29 16 -31 58 -32 21 0 22 -1 8 -15 -14 -14 -13 -17 2 -29 9 -8 11 -12 5
-8 -21 10 -15 -6 36 -95 27 -47 59 -110 71 -140 11 -30 27 -69 35 -87 8 -17
15 -36 15 -43 0 -6 5 -8 12 -4 6 4 8 3 5 -3 -8 -13 9 -79 29 -116 8 -15 16
-37 18 -50 1 -12 8 -42 15 -67 7 -25 12 -47 11 -50 -1 -2 7 -7 17 -11 13 -6
14 -8 3 -8 -13 -1 -15 -30 -18 -184 -2 -127 -9 -212 -22 -281 -11 -55 -17
-102 -15 -104 3 -3 0 -11 -5 -17 -9 -11 -18 -48 -36 -149 -5 -32 -22 -68 -36
-77 -5 -3 -10 -14 -13 -25 -20 -84 -95 -234 -163 -324 -15 -19 -35 -50 -45
-69 -10 -18 -27 -43 -39 -55 -11 -11 -28 -33 -38 -49 -29 -47 -169 -184 -231
-227 -62 -43 -124 -105 -120 -120 5 -22 9 -24 25 -11 24 20 29 -6 7 -31 -18
-19 -21 -19 -21 -4 0 9 -5 14 -10 11 -6 -4 -8 -10 -6 -14 3 -4 0 -8 -7 -8 -7
0 -21 -4 -32 -9 -18 -7 -18 -6 -6 9 7 9 20 17 27 17 9 0 13 10 12 25 -3 32
-14 31 -63 -2 -35 -25 -150 -86 -242 -131 -27 -13 -32 -20 -27 -41 l4 -26 -12
23 c-9 18 -17 22 -37 17 -39 -9 -154 -56 -170 -69 -11 -8 -13 -8 -7 1 9 17 -5
16 -62 -2 -58 -18 -136 -25 -274 -24 -82 0 -108 -3 -108 -13 0 -10 -2 -10 -8
0 -5 7 -43 14 -103 18 -91 5 -141 10 -146 14 -2 2 -6 3 -10 4 -5 1 -17 5 -28
9 -11 3 -31 8 -45 11 -40 8 -59 14 -160 49 -91 31 -318 143 -351 173 -9 8 -19
11 -22 7 -4 -3 -7 -1 -7 5 0 7 -6 12 -14 12 -8 0 -23 11 -34 25 -11 14 -23 25
-26 25 -7 0 -52 37 -82 67 -12 13 -24 23 -28 23 -17 0 -96 83 -96 102 0 4 -6
8 -14 8 -7 0 -22 12 -32 26 -18 25 -40 53 -124 154 -19 23 -40 54 -48 70 -7
15 -22 37 -32 48 -10 11 -16 23 -13 26 4 3 -1 14 -9 23 -31 36 -146 283 -132
283 3 0 12 -16 20 -36 8 -20 17 -34 20 -31 7 6 -30 89 -39 88 -22 -3 -24 2
-15 32 8 27 5 52 -22 143 -28 96 -47 240 -50 379 -1 18 -16 34 -32 35 -4 0 -5
-6 -2 -14 6 -16 -55 -29 -73 -14 -7 6 -13 4 -15 -4 -3 -7 -23 -13 -49 -13 -25
-1 -51 -5 -57 -9 -7 -4 -19 -2 -27 4 -12 10 -15 8 -15 -11 -1 -24 -1 -24 -16
-4 -11 14 -18 16 -21 7 -3 -6 -9 -10 -14 -6 -5 3 -23 -4 -39 -16 -21 -15 -39
-20 -55 -16 -13 3 -26 2 -30 -4 -3 -5 -12 -7 -20 -3 -21 7 -19 -26 2 -49 10
-11 13 -22 7 -28 -15 -15 -62 -20 -68 -7 -2 7 -5 4 -5 -5 -1 -9 6 -21 15 -26
15 -8 15 -10 0 -15 -11 -4 -16 -1 -17 11 0 10 -3 12 -6 5 -2 -7 -9 -13 -15
-13 -7 0 -6 5 1 14 8 9 8 21 2 39 -5 14 -7 28 -3 32 4 4 0 6 -8 3 -18 -6 -26
-48 -9 -48 8 0 9 -4 0 -13 -7 -10 -11 -179 -11 -566 0 -485 2 -552 15 -547 9
3 15 -1 15 -10 0 -10 -6 -14 -15 -10 -13 5 -15 -40 -14 -364 0 -322 5 -407 21
-358 3 8 7 6 11 -5 3 -9 3 -16 -1 -16 -31 5 -33 -3 -31 -131 l1 -130 714 0
c398 0 714 4 714 9 0 5 7 12 16 15 14 5 15 4 4 -8 -11 -14 151 -15 1426 -16
1128 0 1441 3 1453 13 8 6 12 7 8 1 -4 -7 35 -11 128 -13 l135 -1 0 23 c0 13
-5 28 -12 35 -7 7 -8 12 -2 12 14 0 14 33 0 42 -8 6 -8 8 1 8 17 0 18 1611 0
1622 -9 6 -9 8 1 8 18 0 18 416 0 423 -10 4 -10 6 0 6 9 1 12 63 12 276 0 213
-3 275 -12 275 -10 0 -10 2 -1 8 8 5 12 42 12 116 0 97 -1 107 -17 102 -16 -6
-16 -5 0 7 18 14 18 40 -1 76 -12 21 -4 54 10 45 5 -3 9 25 9 61 0 38 -4 64
-9 60 -5 -3 -12 -1 -16 5 -3 5 0 10 8 10 7 0 14 7 14 15 0 8 -4 15 -9 15 -4 0
-8 10 -7 23 0 21 1 21 9 2 5 -11 9 198 9 477 1 391 -1 497 -11 502 -10 5 -10
7 0 12 9 4 12 48 12 169 l0 163 -706 1 c-561 1 -704 -2 -698 -12 6 -9 4 -9 -7
1 -7 7 -39 12 -72 12 -44 0 -56 -3 -51 -12 6 -10 5 -10 -7 -1 -11 9 -76 12
-235 12 -127 -1 -211 -4 -199 -9 16 -7 17 -9 3 -9 -9 -1 -19 3 -23 9 -9 14
-628 12 -637 -3 -6 -9 -8 -9 -8 1 0 9 -33 12 -130 12 -71 0 -130 -4 -130 -8 0
-4 -9 -8 -20 -8 -11 0 -20 4 -20 8 0 4 -9 8 -20 8 -11 0 -20 -6 -20 -12 0 -10
-2 -10 -8 -2 -9 15 -156 18 -147 4 3 -6 1 -10 -4 -10 -6 0 -11 4 -11 10 0 13
-263 9 -272 -4 -5 -8 -8 -7 -8 1 0 8 -35 12 -113 12 -109 1 -114 0 -125 -21
l-12 -23 6 23 5 22 -295 -1 c-182 -2 -296 -6 -296 -12 0 -6 -5 -5 -13 1 -7 6
-60 11 -122 11 -63 0 -104 -3 -97 -8 10 -6 7 -10 -12 -13 -21 -4 -24 -3 -15 8
9 12 3 14 -34 14 l-46 0 0 -640z m1115 265 c-3 -9 0 -15 10 -15 8 0 13 4 10 9
-3 5 16 11 43 13 42 2 53 -1 73 -21 l23 -24 3 21 c2 12 8 22 13 22 6 0 7 -4 4
-10 -3 -5 -2 -10 3 -10 14 0 33 -48 22 -55 -6 -4 -10 -1 -10 4 0 6 -12 11 -27
10 -17 0 -22 -3 -13 -6 31 -12 39 -42 13 -44 -12 -1 -10 -4 7 -9 14 -4 19 -8
11 -9 -9 -1 -12 -10 -8 -27 3 -15 1 -40 -3 -55 -5 -16 -5 -29 0 -29 7 0 4
-100 -5 -127 -2 -6 1 -13 6 -15 13 -4 -10 -58 -24 -58 -5 0 -4 -6 2 -14 6 -7
9 -21 5 -30 -7 -19 -25 -22 -22 -3 2 6 -3 11 -9 9 -20 -3 -15 32 7 61 13 16
16 28 10 32 -14 8 -13 42 1 47 8 3 6 10 -5 21 -16 16 -16 17 3 17 12 0 21 6
21 16 0 11 -6 14 -21 9 -18 -6 -19 -5 -10 13 14 27 14 32 -3 32 -8 0 -18 9
-21 21 -7 20 -30 22 -30 2 0 -6 -3 -15 -7 -19 -5 -4 -8 0 -8 9 0 9 5 19 10 22
6 3 10 11 10 16 0 6 -4 8 -9 4 -5 -3 -12 -1 -16 4 -3 6 11 19 32 30 28 15 33
20 18 21 -11 0 -29 -6 -40 -14 -21 -14 -85 -10 -85 5 0 5 -6 9 -14 9 -8 0 -16
7 -20 15 -3 8 -12 15 -21 15 -8 0 -15 4 -15 10 0 5 6 7 13 4 8 -3 18 6 25 20
11 24 43 66 50 66 2 0 2 -7 -2 -15z m-736 -754 c0 -6 9 -8 20 -6 12 2 18 0 15
-6 -4 -5 -10 -7 -14 -5 -7 5 -18 -19 -40 -87 -14 -43 -9 -55 47 -115 23 -25
27 -34 17 -38 -8 -3 -18 -3 -24 0 -5 4 -14 -2 -20 -11 -9 -16 -11 -15 -12 7
-1 14 -3 30 -4 35 -2 6 -3 15 -4 20 -1 6 -7 -1 -14 -14 -6 -14 -18 -26 -24
-29 -18 -5 -16 46 2 82 12 23 12 26 1 17 -8 -6 -19 -25 -26 -41 -12 -29 -44
-53 -33 -24 3 10 0 12 -10 8 -13 -5 -14 1 -6 37 5 23 15 51 21 63 17 32 70 81
84 78 7 -1 15 2 19 8 3 5 1 10 -4 10 -6 0 -11 5 -11 10 0 6 5 10 10 10 6 0 10
-4 10 -9z m3784 -5 c-3 -8 3 -20 14 -27 25 -18 50 -69 45 -91 -3 -13 0 -16 11
-12 9 3 16 1 16 -5 0 -19 -31 -61 -41 -55 -5 3 -14 -7 -21 -21 -9 -21 -17 -25
-36 -20 -13 3 -21 2 -18 -3 2 -4 -4 -14 -16 -21 -11 -7 -17 -8 -13 -2 3 6 -1
11 -9 11 -9 0 -16 -6 -17 -12 0 -10 -2 -10 -6 0 -6 15 -33 16 -33 1 0 -5 -4
-8 -9 -5 -5 3 -14 -1 -21 -9 -19 -23 -27 -18 -22 14 3 24 0 29 -22 33 -14 3
-26 2 -26 -2 0 -4 -18 -7 -40 -7 -22 0 -40 4 -40 9 0 7 39 28 60 32 3 1 11 5
18 10 7 4 16 5 19 2 4 -3 17 1 31 10 22 15 25 14 48 -7 30 -29 30 -39 0 -39
-14 0 -27 -4 -30 -9 -3 -5 10 -9 29 -9 19 0 35 4 35 8 0 4 16 11 35 14 41 8
95 51 94 74 0 14 -2 14 -6 2 -11 -26 -57 -60 -84 -60 -14 0 -34 9 -44 20 -10
11 -22 17 -26 14 -5 -3 -9 4 -9 15 0 27 22 27 45 1 25 -28 41 -25 21 4 -22 35
-1 45 25 12 21 -27 39 -27 39 0 0 8 -9 22 -20 31 -11 10 -20 24 -20 31 0 9 -6
12 -16 8 -14 -6 -15 -4 -4 9 10 12 15 13 21 4 5 -9 12 -8 29 4 14 10 17 16 9
19 -12 4 -7 38 5 38 3 0 3 -6 0 -14z m-3738 -50 c3 -14 3 -29 0 -34 -8 -13 38
-78 52 -74 7 1 12 -2 12 -8 0 -11 32 -1 43 14 5 7 10 6 17 -4 5 -9 6 -18 0
-24 -15 -15 8 -50 24 -37 7 6 15 9 17 6 3 -2 27 -7 54 -10 62 -8 71 -13 48
-31 -17 -12 -16 -13 9 -14 39 0 42 -15 3 -16 -19 0 -33 4 -32 10 1 6 -6 10
-15 8 -10 -2 -18 1 -18 5 0 12 -94 12 -101 1 -9 -15 -76 12 -106 42 -35 34
-63 81 -63 104 0 18 1 18 20 1 16 -14 20 -15 20 -4 0 8 -5 20 -11 26 -13 13
-4 63 11 63 5 0 12 -11 16 -24z m3625 -1062 c7 -8 21 -13 31 -11 10 3 18 1 18
-5 0 -6 7 -7 15 -4 8 3 22 9 30 12 10 4 15 0 15 -10 0 -20 18 -21 41 0 15 14
19 13 39 -15 12 -17 28 -31 35 -31 8 0 16 -9 20 -19 3 -11 13 -25 22 -33 14
-11 15 -10 8 12 -4 14 -12 27 -16 28 -13 5 -11 29 3 51 11 18 13 18 25 3 7 -9
13 -31 13 -49 0 -17 5 -35 10 -38 6 -4 10 6 10 22 0 42 13 57 44 49 16 -4 24
-11 20 -18 -4 -7 -3 -8 5 -4 6 4 9 18 7 32 -5 27 3 31 23 12 11 -11 11 -9 2 9
-10 19 -9 22 4 17 14 -6 19 -20 18 -51 -1 -7 3 -11 7 -8 5 3 11 1 15 -5 3 -5
2 -10 -3 -10 -5 0 -7 -11 -5 -24 6 -29 -34 -106 -55 -106 -7 0 -20 -7 -28 -15
-9 -8 -21 -15 -27 -14 -9 0 -9 2 0 5 7 3 9 12 6 20 -4 11 -9 12 -19 3 -11 -9
-14 -8 -14 5 0 9 7 16 15 16 9 0 15 9 15 23 0 12 7 31 15 41 8 11 15 24 15 29
0 12 -25 -14 -32 -35 -9 -22 -45 -41 -53 -28 -3 5 -13 6 -21 3 -10 -4 -26 7
-46 31 -34 41 -49 42 -23 2 16 -24 16 -26 1 -32 -16 -6 -46 11 -44 24 3 28 -4
53 -14 49 -7 -2 -12 -11 -10 -21 3 -18 -34 -23 -40 -5 -3 9 -10 9 -27 0 -13
-7 -20 -18 -17 -27 6 -17 -10 -19 -20 -2 -4 6 0 16 9 23 20 15 22 29 4 44 -10
7 -17 7 -24 0 -19 -19 -50 6 -51 41 -1 33 9 38 29 14z m-3391 -976 c0 -9 3 -9
12 0 16 16 28 15 28 -3 0 -8 5 -15 10 -15 6 0 10 -5 10 -11 0 -7 -11 -9 -28
-6 -40 8 -61 -7 -33 -24 22 -15 29 -39 10 -39 -6 0 -9 -9 -6 -20 3 -11 1 -18
-4 -14 -5 3 -9 12 -9 20 0 8 -4 14 -10 14 -5 0 -10 8 -10 18 0 10 -7 19 -15
19 -19 0 -19 -16 1 -38 9 -10 13 -23 9 -28 -10 -16 -81 -13 -95 4 -7 8 -11 15
-9 16 2 0 12 2 23 4 10 2 23 8 29 14 7 7 1 8 -23 1 -48 -14 -51 -20 -29 -64
20 -42 18 -56 -5 -37 -22 19 -38 77 -31 112 4 17 9 28 12 25 3 -2 20 4 39 15
19 10 48 19 65 19 17 0 32 6 35 15 7 18 24 20 24 3z m3366 -28 c9 0 3 -37 -8
-49 -11 -10 -6 -12 22 -9 34 3 35 2 38 -34 4 -46 15 -48 32 -8 9 21 19 30 36
30 15 0 24 -6 24 -15 0 -8 5 -15 11 -15 6 0 9 9 6 20 -3 11 -1 20 4 20 5 0 9
-6 9 -12 0 -10 3 -9 9 1 7 11 11 10 20 -5 25 -45 29 -48 43 -36 11 9 14 6 12
-16 -2 -39 -3 -42 -13 -42 -5 0 -7 10 -4 23 4 19 2 18 -12 -5 -8 -16 -19 -28
-23 -28 -4 0 -13 -10 -21 -21 -11 -18 -11 -23 1 -30 9 -6 6 -9 -12 -10 -59 -3
-87 -2 -98 5 -7 4 -16 5 -21 1 -6 -3 -9 4 -8 15 1 15 7 20 18 17 10 -3 30 4
46 15 17 12 20 17 8 13 -51 -18 -59 -19 -52 -2 8 20 6 21 -28 5 -17 -8 -29 -8
-33 -2 -4 6 -23 15 -42 20 -26 7 -36 16 -38 34 l-4 24 -14 -24 -13 -25 -1 27
c0 17 -8 31 -20 38 -26 14 -26 30 0 30 12 0 17 5 14 14 -7 17 -42 28 -50 15
-3 -5 3 -9 12 -9 14 0 15 -3 6 -12 -9 -9 -15 -8 -26 8 -30 39 -27 54 9 54 18
0 36 -6 39 -12 5 -10 7 -10 12 -1 4 10 11 10 26 2 18 -10 20 -9 15 5 -6 15 -3
15 30 1 19 -8 37 -15 39 -15z m-2736 -635 c23 -8 53 -15 66 -15 13 0 24 -5 24
-11 0 -6 -9 -9 -20 -6 -11 3 -20 2 -20 -3 0 -10 26 -20 51 -20 10 0 19 -4 19
-10 0 -5 -6 -7 -14 -4 -10 4 -12 -2 -9 -20 3 -16 1 -26 -6 -26 -7 0 -10 4 -7
9 3 5 -5 8 -19 7 -28 -1 -31 -6 -13 -24 9 -9 6 -12 -15 -12 -33 0 -43 -20 -27
-50 10 -19 8 -25 -11 -43 -19 -18 -22 -19 -16 -3 15 39 -6 35 -24 -4 -23 -51
-55 -79 -91 -80 -29 0 -35 9 -18 26 5 5 6 15 0 24 -7 11 -10 8 -15 -13 -7 -27
-19 -35 -30 -18 -3 5 -20 7 -39 4 -26 -4 -35 -1 -40 13 -13 33 -17 66 -7 60 5
-3 7 3 4 14 -3 11 -10 20 -15 20 -5 0 -6 5 -3 11 5 6 12 4 21 -8 12 -17 13
-16 9 6 -2 13 -2 21 2 18 3 -3 12 1 21 10 14 14 17 14 28 -2 13 -17 34 -13 34
6 0 6 -5 7 -12 3 -7 -4 -8 -3 -4 4 4 7 16 12 27 12 11 0 17 -4 14 -10 -4 -6 8
-10 29 -10 19 0 37 -6 40 -12 3 -7 3 -2 0 11 -6 23 -5 24 39 18 37 -5 45 -4
41 7 -9 23 -34 27 -67 11 -24 -12 -32 -13 -39 -3 -4 7 -6 18 -3 23 3 6 8 18
11 28 4 9 10 17 15 17 12 0 11 -17 -1 -25 -5 -3 -10 -10 -10 -16 0 -22 39 17
42 43 4 25 2 27 -20 23 -27 -5 -24 2 10 21 13 6 24 12 24 13 1 1 21 -6 44 -14z
m2196 -149 c8 -8 14 -21 14 -28 0 -9 14 -15 39 -16 36 -3 39 -1 34 19 -5 16
-3 20 6 15 7 -5 10 -11 7 -14 -3 -3 1 -14 11 -24 9 -10 13 -19 10 -19 -4 -1
-13 -2 -19 -3 -7 -1 -11 -8 -10 -16 10 -40 9 -97 -2 -109 -9 -12 -6 -13 17 -9
15 3 27 1 27 -3 0 -8 -5 -10 -37 -13 -6 -1 -20 -9 -30 -18 -10 -9 -28 -16 -40
-15 -21 1 -21 2 -5 18 9 9 19 12 20 8 6 -14 23 -10 20 4 -1 6 4 23 11 37 l14
25 -25 -22 c-13 -13 -28 -23 -32 -23 -4 0 -21 -9 -36 -20 -16 -11 -30 -16 -32
-11 -2 6 -17 7 -40 2 -27 -6 -38 -5 -42 5 -3 7 0 14 6 16 7 3 8 10 4 17 -5 7
-14 10 -22 7 -8 -3 -14 -1 -14 4 0 5 -7 7 -15 4 -25 -10 -17 5 13 20 l27 15
-42 1 c-61 0 -58 25 3 35 53 8 51 20 -4 17 -34 -2 -73 11 -62 21 3 3 34 7 70
10 71 6 100 14 100 28 0 5 7 9 15 9 8 0 15 -4 15 -8 0 -5 6 -9 13 -9 8 0 14 6
14 14 0 7 -6 13 -14 13 -7 0 -13 7 -13 15 0 19 7 19 26 1z"/>
<path d="M2470 3740 c69 -22 221 -60 262 -65 26 -3 50 -10 53 -16 4 -5 16 -9
29 -9 13 0 41 -12 63 -27 41 -28 150 -123 124 -108 -9 5 -12 4 -7 -3 4 -7 13
-12 20 -12 7 0 31 -17 53 -37 69 -65 106 -97 143 -126 19 -16 34 -33 33 -38
-2 -5 1 -8 6 -6 5 1 32 -29 60 -68 27 -38 64 -89 81 -113 18 -24 34 -41 37
-38 3 3 -7 22 -23 42 -16 20 -36 48 -44 63 -32 56 -80 113 -146 172 -94 84
-209 186 -258 230 -70 61 -99 77 -181 97 -44 11 -125 32 -179 46 -54 14 -111
26 -125 25 l-26 -1 25 -8z"/>
<path d="M1545 3695 c-36 -20 -83 -52 -104 -73 -21 -20 -57 -50 -81 -67 -68
-48 -238 -231 -262 -281 -11 -25 -31 -50 -42 -56 -31 -13 -126 -173 -126 -210
0 -5 -12 -35 -26 -66 -14 -31 -28 -73 -31 -92 -4 -32 -3 -31 21 18 14 30 26
59 26 64 0 21 74 184 104 231 17 26 39 50 48 53 10 3 28 28 39 55 12 27 26 49
31 49 5 0 3 -10 -3 -22 -9 -18 -9 -20 0 -12 7 6 13 18 14 25 3 16 33 62 58 87
37 38 179 165 201 179 12 9 41 33 63 53 22 21 64 50 93 65 46 24 61 35 48 35
-2 0 -34 -16 -71 -35z"/>
<path d="M2170 3720 c-19 -4 -64 -15 -100 -24 l-65 -16 55 5 c30 2 78 9 105
15 134 29 434 -15 540 -80 17 -10 59 -30 94 -45 35 -14 81 -38 103 -51 22 -14
42 -23 45 -20 6 6 -56 41 -189 107 -37 19 -68 37 -68 41 0 9 83 -26 113 -47
39 -27 41 -16 2 15 -40 32 -91 50 -140 50 -16 0 -66 12 -110 26 -65 21 -105
26 -215 29 -74 2 -151 0 -170 -5z"/>
<path d="M2474 3669 c-3 -5 2 -9 10 -9 8 0 52 -12 98 -26 46 -15 89 -28 97
-30 8 -3 11 -7 9 -10 -3 -3 -32 2 -64 10 -31 8 -61 13 -66 10 -4 -3 -8 -1 -8
3 0 9 -23 14 -70 16 -14 1 -27 4 -30 8 -6 8 -48 15 -150 24 -52 5 -105 2 -175
-10 -108 -18 -110 -19 -101 -33 3 -5 46 -1 103 10 94 18 177 21 198 9 6 -3 27
-6 47 -7 35 0 57 -9 47 -18 -4 -5 -113 8 -155 17 -18 5 -171 -20 -244 -38 -19
-5 -22 -4 -10 4 11 8 11 11 2 11 -7 0 -15 -7 -18 -15 -4 -8 -17 -15 -29 -15
-13 0 -27 -4 -30 -10 -3 -5 -11 -10 -18 -10 -15 0 25 29 41 30 18 0 56 40 38
40 -8 0 -21 -6 -28 -13 -15 -15 -60 -33 -105 -42 -17 -3 -56 -21 -87 -40 -31
-18 -71 -39 -91 -45 -19 -6 -35 -16 -35 -22 0 -7 4 -7 13 -1 10 8 102 43 114
43 2 0 3 -5 3 -11 0 -5 -5 -7 -12 -3 -8 5 -9 2 -5 -9 3 -10 2 -17 -2 -17 -5 0
-11 5 -13 11 -3 8 -19 4 -47 -10 -24 -13 -49 -20 -57 -17 -9 3 -12 1 -9 -4 4
-6 -8 -18 -27 -28 -18 -9 -52 -37 -75 -62 -24 -25 -43 -41 -43 -36 0 5 -9 1
-20 -9 -13 -12 -17 -21 -10 -25 7 -5 6 -11 -4 -19 -12 -10 -14 -8 -12 12 3 26
67 97 87 97 7 0 9 3 6 7 -12 11 24 42 41 36 9 -4 13 -2 8 5 -3 6 -1 14 5 18 8
5 9 3 4 -6 -5 -8 -3 -11 6 -8 8 3 14 9 14 14 0 20 18 34 97 74 94 47 111 60
82 60 -21 0 -31 -5 -136 -70 -84 -51 -223 -185 -244 -235 -7 -18 -18 -37 -24
-40 -6 -4 -7 -11 -4 -17 4 -7 2 -8 -5 -4 -6 4 -10 10 -8 14 2 4 9 19 16 34 11
21 11 31 2 41 -9 12 -8 16 2 20 16 6 60 77 48 77 -10 0 -91 -95 -111 -130 -8
-15 -37 -56 -63 -91 -47 -62 -113 -186 -104 -195 3 -3 21 27 41 67 20 40 48
85 61 101 14 16 25 33 25 36 0 4 16 24 36 44 19 21 33 42 30 47 -3 5 1 14 8
20 22 18 29 -4 12 -36 -8 -15 -29 -41 -46 -58 -17 -16 -36 -39 -42 -49 -9 -17
-6 -16 22 4 17 12 34 29 37 36 7 18 19 18 26 0 4 -10 1 -13 -8 -10 -7 3 -16
-3 -20 -15 -3 -12 -13 -21 -21 -21 -21 0 -56 -61 -43 -76 7 -8 7 -14 -1 -19
-15 -9 -23 21 -11 44 17 31 12 38 -9 12 -22 -26 -26 -47 -9 -53 6 -2 9 -13 6
-23 -5 -19 -5 -18 -12 3 -10 32 -28 23 -43 -22 -6 -21 -21 -49 -31 -62 -11
-14 -22 -37 -26 -53 -3 -15 -12 -28 -20 -28 -12 0 -12 5 1 29 8 15 14 31 13
34 0 4 5 11 13 16 10 7 10 11 1 14 -7 3 -9 12 -6 21 4 9 2 14 -3 10 -6 -3 -16
-28 -24 -56 -7 -28 -17 -48 -22 -45 -4 3 -5 -2 -2 -11 4 -10 2 -15 -6 -13 -8
2 -22 -25 -37 -67 -34 -100 -43 -129 -43 -140 0 -15 46 79 54 109 3 14 11 26
16 26 14 0 13 -5 -15 -58 -13 -26 -29 -60 -34 -75 -6 -16 -15 -25 -21 -22 -10
6 -11 3 -16 -74 -2 -24 -7 -47 -13 -50 -5 -3 -13 -56 -18 -116 -4 -61 -9 -93
-11 -72 -2 20 -7 37 -11 37 -10 0 -3 -204 10 -295 5 -38 23 -99 38 -135 16
-36 37 -92 46 -125 10 -33 25 -78 34 -100 9 -22 16 -44 17 -50 2 -24 31 -73
62 -104 19 -19 39 -47 44 -63 6 -16 24 -45 42 -64 38 -45 146 -129 146 -115 0
6 -12 18 -26 28 -53 36 -143 134 -154 167 -6 19 -17 37 -25 40 -8 3 -12 12 -9
20 3 8 -1 30 -10 47 -9 18 -14 34 -12 36 3 4 12 -13 60 -117 24 -51 99 -138
151 -173 14 -11 30 -30 35 -43 5 -13 21 -29 35 -34 15 -6 24 -14 21 -19 -8
-12 31 -45 84 -71 25 -12 70 -37 100 -55 30 -18 80 -41 110 -51 30 -11 63 -26
73 -35 17 -16 136 -48 187 -52 14 0 28 -5 31 -9 3 -5 50 -18 105 -29 120 -25
246 -21 344 11 36 11 84 22 107 23 22 1 39 5 37 9 -4 6 14 22 26 23 3 0 24 6
47 14 27 9 40 18 36 27 -4 10 -10 11 -24 3 -11 -5 -19 -6 -19 -1 0 6 10 12 23
16 32 8 37 7 35 -6 -4 -17 14 -14 94 16 37 14 78 28 90 30 43 8 72 22 60 30
-6 4 -20 2 -30 -3 -18 -10 -45 -17 -105 -28 -15 -3 -30 -9 -33 -14 -3 -5 -10
-9 -17 -9 -21 0 27 27 81 44 28 10 52 23 52 29 0 8 3 7 9 -2 5 -8 11 -9 15 -3
3 6 2 13 -4 17 -5 3 -10 12 -10 18 0 8 3 8 9 -2 6 -10 13 -11 29 -2 29 15 41
13 19 -3 -17 -13 -16 -14 7 -12 15 0 26 5 26 9 0 5 4 5 10 2 5 -3 23 4 40 17
48 35 124 108 113 108 -6 0 -31 -19 -57 -43 -25 -24 -46 -41 -46 -38 0 2 -11
-6 -25 -19 -14 -13 -25 -18 -25 -11 0 7 -4 9 -10 6 -22 -14 -8 11 17 29 14 11
23 14 19 8 -12 -21 10 -13 30 10 17 19 17 21 2 15 -10 -3 -20 -2 -22 2 -3 5 7
8 22 7 17 0 26 4 24 13 -1 7 2 10 6 7 5 -3 26 11 46 30 26 25 43 34 58 31 11
-3 17 -3 14 0 -10 10 14 32 28 27 13 -5 31 24 21 34 -3 3 -5 0 -5 -6 0 -7 -5
-12 -12 -12 -6 0 -20 -7 -30 -17 -10 -9 -21 -13 -25 -9 -5 4 1 12 12 19 11 6
34 25 52 42 33 32 44 52 21 39 -7 -4 -10 -4 -6 1 4 4 3 14 -4 22 -6 7 -8 16
-4 20 3 3 6 1 6 -6 0 -7 4 -10 9 -7 5 3 12 -5 15 -19 8 -33 18 -32 39 5 15 25
16 29 2 24 -8 -3 -15 -10 -15 -15 0 -5 -5 -9 -10 -9 -6 0 -9 3 -9 8 1 4 0 9
-1 12 -7 19 -7 40 1 40 5 0 9 6 9 14 0 17 33 31 38 16 3 -8 8 -8 17 0 8 6 11
18 8 26 -4 10 -9 12 -18 4 -9 -8 -14 -7 -18 3 -4 10 2 14 16 13 12 -1 26 3 30
9 5 6 7 3 3 -7 -3 -12 -1 -15 9 -11 8 3 12 9 9 14 -3 6 0 17 8 26 9 12 9 15 1
9 -7 -4 -13 -2 -13 3 0 6 9 11 20 11 11 0 20 -2 20 -5 0 -8 -52 -109 -59 -115
-6 -5 -11 -40 -5 -40 9 0 74 124 74 141 0 11 5 30 11 41 8 15 8 19 0 13 -17
-10 -7 37 14 69 12 18 15 36 11 57 -5 27 -4 30 9 19 18 -15 19 -30 3 -67 -6
-15 -12 -32 -13 -38 -1 -5 -3 -14 -5 -20 -1 -5 -1 -22 0 -37 1 -14 -3 -29 -9
-33 -6 -3 -11 -14 -11 -24 0 -9 -15 -42 -34 -73 -18 -31 -36 -67 -40 -81 -3
-13 -22 -47 -41 -76 -19 -28 -31 -51 -25 -51 6 0 19 15 30 33 10 17 24 37 29
44 6 7 11 16 11 20 0 4 28 65 63 135 34 70 57 122 50 116 -17 -14 -13 13 11
67 10 22 26 69 37 105 11 36 24 72 29 82 13 23 24 118 14 118 -5 0 -10 -11
-10 -25 -1 -13 -9 -48 -17 -77 -9 -29 -18 -64 -21 -78 -7 -32 -23 -56 -31 -48
-4 3 -1 16 5 28 28 52 47 158 43 239 -3 58 -1 81 7 81 8 0 10 -14 7 -45 -4
-26 -2 -45 4 -45 5 0 10 24 11 53 3 98 3 262 -1 280 -6 31 -21 -3 -16 -35 6
-34 -10 -37 -19 -4 -3 13 -9 32 -13 42 -4 12 -3 15 5 10 18 -11 15 29 -3 44
-13 11 -13 15 -3 21 11 7 11 9 0 9 -8 0 -11 7 -8 18 4 11 -1 35 -9 55 -8 20
-15 38 -15 39 -1 16 -14 48 -19 48 -4 0 -7 8 -8 18 -1 17 -10 57 -13 57 -1 0
-3 11 -6 25 -6 38 -35 111 -59 150 -12 19 -36 64 -53 100 -18 36 -42 82 -55
103 -38 63 -309 327 -336 327 -6 0 -18 12 -27 26 -10 14 -39 36 -65 50 -72 36
-72 29 -1 -17 35 -22 61 -43 58 -46 -3 -3 14 -18 38 -34 24 -15 48 -33 53 -41
4 -7 22 -22 38 -33 31 -19 215 -200 215 -211 0 -4 -7 0 -17 7 -15 13 -15 12
-3 -11 9 -17 15 -20 18 -11 2 7 22 -17 43 -54 27 -46 36 -71 30 -79 -6 -7 -6
-17 -1 -26 6 -9 5 -17 -3 -22 -18 -11 -24 -10 -31 8 -5 13 -4 14 7 6 11 -9 14
-6 14 18 0 33 -11 39 -25 14 -8 -14 -10 -14 -14 4 -4 14 -2 19 7 16 21 -8 30
18 11 31 -9 7 -15 17 -14 21 2 5 -2 10 -7 11 -6 1 -9 -4 -9 -12 1 -7 -4 -11
-12 -8 -17 6 -18 20 -1 26 13 5 -29 57 -46 57 -11 0 -36 30 -37 44 0 5 10 1
21 -10 41 -36 -29 58 -77 103 -44 42 -151 127 -189 150 -68 40 -118 64 -106
49 7 -9 19 -16 25 -16 16 0 74 -49 58 -50 -17 0 -102 58 -102 70 0 11 -95 60
-116 60 -8 0 -23 9 -34 20 -36 36 -213 90 -226 69z m-136 -133 c40 -3 113 -13
163 -22 66 -13 92 -15 101 -6 8 8 5 9 -11 5 -13 -3 -21 -1 -21 6 0 7 -4 9 -10
6 -5 -3 -10 -1 -10 5 0 8 7 9 18 5 20 -8 41 -13 62 -15 12 0 11 -3 -3 -14 -17
-13 -16 -15 15 -21 28 -6 87 -31 198 -83 50 -24 166 -103 203 -139 32 -31 40
-34 49 -22 8 12 9 11 5 -2 -3 -10 4 -26 17 -38 18 -17 25 -18 36 -8 12 10 12
9 1 -5 -11 -15 -11 -21 -1 -33 7 -9 19 -14 26 -11 7 3 18 -3 26 -12 9 -11 10
-14 1 -8 -18 10 -16 -1 5 -23 59 -63 167 -238 208 -335 80 -193 93 -249 101
-453 8 -199 -20 -364 -87 -510 -11 -24 -20 -46 -20 -50 0 -5 -20 -39 -45 -76
-25 -38 -45 -73 -45 -78 0 -9 -72 -95 -140 -166 -25 -25 -38 -47 -34 -56 3 -8
1 -18 -5 -22 -7 -3 -8 0 -5 9 9 23 -4 20 -44 -10 -26 -20 -31 -29 -21 -35 11
-7 9 -9 -5 -9 -10 0 -27 -10 -37 -22 -11 -11 -19 -17 -19 -12 0 5 -4 4 -8 -2
-9 -14 -122 -73 -180 -95 -123 -45 -175 -68 -157 -69 l20 -1 -20 -8 c-11 -5
-25 -4 -32 1 -9 8 -13 6 -13 -4 0 -8 -7 -15 -15 -15 -8 0 -12 4 -9 9 7 11 -6
10 -101 -4 -45 -6 -84 -18 -88 -25 -5 -7 -13 -10 -19 -7 -6 4 -50 9 -97 11
-47 2 -115 9 -151 14 -36 6 -85 13 -110 16 -55 6 -238 76 -300 114 -8 5 -25
13 -37 18 -11 6 -24 15 -28 20 -3 6 -17 11 -31 11 -14 0 -24 6 -24 15 0 9 -6
12 -17 8 -11 -4 -14 -3 -9 5 5 8 2 10 -8 6 -9 -3 -16 -1 -16 4 0 15 -62 72
-77 72 -7 0 -20 11 -29 25 -9 14 -47 58 -85 97 -62 65 -179 240 -179 268 0 6
-8 30 -19 53 -84 189 -112 441 -77 687 13 88 24 123 61 205 7 17 24 57 36 90
23 62 112 216 158 273 49 61 106 125 130 146 58 51 105 97 91 90 -8 -4 -22
-13 -30 -20 -8 -7 -19 -13 -25 -14 -5 -1 -9 -6 -7 -12 1 -5 -2 -7 -8 -3 -5 3
-10 2 -10 -2 0 -5 -9 -14 -20 -20 -15 -10 -21 -10 -26 0 -4 6 -4 9 0 5 4 -3
20 7 36 24 18 18 34 27 41 22 8 -5 10 -2 6 8 -3 10 0 15 11 14 11 -1 16 5 14
17 -2 9 2 17 8 17 6 0 9 -4 6 -9 -3 -5 2 -11 12 -13 13 -4 18 1 20 20 1 19 -2
23 -14 18 -14 -5 -15 -4 -5 8 11 13 15 13 31 -2 14 -12 17 -19 8 -29 -18 -22
-2 -15 30 14 25 21 29 30 21 45 -12 23 0 24 16 1 11 -14 15 -15 29 -4 14 12
14 15 -1 39 l-17 27 21 -18 c23 -20 54 -17 83 8 33 28 82 47 90 35 5 -8 9 -7
13 3 3 9 14 14 24 13 10 -2 20 0 23 5 3 4 19 10 35 14 24 5 27 4 15 -5 -12 -9
-7 -11 25 -6 88 11 159 26 168 35 5 5 23 8 41 6 17 -3 64 -6 104 -9z"/>
<path d="M2149 3450 c-41 -9 -97 -24 -124 -33 -65 -23 -81 -21 -25 3 70 29 28
23 -63 -9 -96 -34 -273 -128 -310 -165 -14 -14 -31 -26 -37 -26 -7 0 -9 -8 -5
-20 5 -15 2 -20 -11 -20 -10 0 -15 -3 -11 -6 9 -9 -30 -47 -42 -40 -16 10
-173 -209 -217 -304 -21 -44 -26 -56 -65 -155 -61 -158 -81 -383 -50 -580 17
-106 20 -115 39 -115 14 0 15 2 2 10 -8 5 -11 12 -7 16 8 9 47 -30 47 -47 0
-6 -7 -8 -15 -5 -8 3 -22 9 -30 12 -12 5 -9 -9 11 -62 13 -38 31 -83 39 -101
8 -17 15 -35 15 -40 0 -6 29 -54 65 -107 67 -101 202 -242 259 -270 17 -9 49
-29 71 -45 48 -35 255 -141 276 -141 8 0 59 -12 114 -26 134 -34 287 -36 430
-4 55 12 116 26 135 30 64 14 182 69 174 81 -2 4 4 5 14 2 22 -5 148 77 145
95 -2 6 4 9 12 6 17 -7 98 63 184 158 49 54 53 61 42 84 -6 14 -7 23 -2 20 5
-4 11 0 14 6 2 8 8 9 13 4 5 -5 4 -11 -3 -13 -7 -3 -13 -9 -13 -14 0 -19 22 3
54 55 44 69 126 257 126 287 0 19 -2 21 -10 9 -6 -9 -10 -10 -10 -3 0 7 7 16
15 20 19 11 45 164 45 272 0 76 -7 134 -40 313 -10 56 -98 262 -123 289 -11
11 -25 18 -33 15 -8 -3 -14 -1 -14 3 0 5 6 12 13 14 6 3 3 6 -8 6 -17 1 -17 3
-5 11 11 7 11 10 2 10 -7 0 -10 5 -6 12 5 8 0 9 -14 6 -12 -4 -25 -2 -28 3 -3
5 -2 9 3 8 23 -4 21 5 -7 46 -63 91 -250 267 -250 234 0 -6 -5 -7 -11 -4 -6 4
-8 13 -5 21 3 9 -2 14 -14 14 -11 0 -20 4 -20 10 0 5 -17 18 -37 29 -21 10
-67 35 -103 55 -36 19 -75 36 -86 36 -12 0 -37 6 -55 14 -30 12 -35 12 -46 -3
-12 -15 -13 -15 -7 2 4 11 1 17 -10 17 -9 0 -17 -1 -19 -2 -2 -2 -16 5 -31 16
-16 10 -26 14 -23 9 8 -12 -154 -4 -167 8 -14 13 -59 9 -147 -11z m247 -279
c-11 -17 6 -41 30 -41 23 0 125 -31 222 -68 29 -11 74 -36 101 -55 26 -19 57
-38 69 -41 24 -8 30 -26 10 -26 -9 0 -9 -3 1 -9 8 -5 20 -7 28 -4 7 3 16 -3
20 -13 8 -22 75 -90 85 -87 4 2 6 -5 5 -15 -1 -16 43 -91 70 -119 6 -7 14 -26
18 -42 3 -17 15 -48 26 -70 47 -97 64 -277 40 -411 -14 -76 -76 -246 -101
-275 -10 -11 -25 -34 -33 -50 -26 -52 -174 -194 -251 -240 -44 -27 -126 -62
-210 -90 -129 -43 -190 -57 -157 -36 7 5 -17 6 -59 3 -98 -7 -288 26 -275 48
3 5 -12 7 -32 5 -21 -1 -32 0 -24 2 7 3 -14 18 -49 35 -34 16 -64 27 -68 23
-4 -3 -1 -9 5 -13 8 -5 8 -10 -1 -18 -8 -7 -17 -5 -31 8 -14 14 -15 18 -4 13
10 -4 19 0 23 11 4 9 5 18 4 19 -2 1 -24 14 -50 29 -27 16 -48 32 -48 37 0 5
-9 9 -20 9 -12 0 -17 5 -14 14 9 23 -18 31 -33 11 -7 -11 -13 -14 -13 -8 0 7
5 15 10 18 18 11 11 24 -16 31 -17 4 -23 11 -20 21 4 9 -1 17 -14 20 -11 3
-17 9 -14 14 9 15 -16 49 -49 64 -22 10 -25 13 -7 8 22 -5 23 -4 11 10 -9 12
-24 15 -45 12 -17 -2 -26 -2 -19 1 7 3 9 13 6 22 -5 14 -3 13 9 -2 33 -42 27
7 -11 91 -41 90 -64 192 -62 273 2 84 34 255 56 301 28 56 42 115 26 105 -7
-5 -8 -1 -4 9 4 13 8 14 14 4 9 -16 5 -21 62 66 26 39 70 93 99 121 64 61 195
151 235 160 15 4 33 10 38 14 22 17 134 50 188 56 31 4 57 10 57 13 0 3 37 4
81 2 58 -2 80 0 75 8 -7 11 0 31 10 31 3 0 3 -4 0 -9z"/>
<path d="M2225 3010 c-22 -4 -43 -6 -47 -4 -3 2 -8 0 -10 -6 -1 -5 -39 -19
-83 -31 -44 -11 -90 -27 -102 -35 -12 -8 -28 -14 -34 -14 -6 0 -22 -11 -35
-25 -13 -14 -27 -25 -31 -25 -13 0 -103 -67 -97 -72 2 -3 -11 -23 -31 -44 -76
-84 -85 -96 -91 -119 -3 -13 -12 -29 -20 -36 -8 -6 -14 -20 -14 -30 0 -11 -5
-19 -11 -19 -8 0 -8 -4 0 -14 9 -10 8 -16 -3 -25 -8 -7 -12 -19 -9 -27 3 -8
-1 -22 -8 -31 -12 -15 -12 -16 6 -10 18 6 19 6 3 -6 -10 -8 -15 -21 -12 -34 3
-11 1 -24 -5 -27 -5 -4 -8 -13 -4 -21 3 -8 0 -15 -6 -15 -6 0 -11 -8 -11 -17
0 -15 2 -16 10 -3 7 11 10 8 10 -15 0 -17 5 -36 12 -43 8 -8 8 -12 1 -12 -5 0
-10 -13 -9 -30 1 -17 7 -30 14 -30 6 0 12 -7 12 -15 0 -8 -8 -15 -17 -15 -14
0 -15 -2 -5 -9 8 -4 14 -12 15 -17 1 -5 5 -8 8 -7 3 1 12 -10 18 -25 10 -22
10 -25 0 -14 -23 22 -31 12 -10 -14 11 -14 17 -32 14 -41 -5 -12 -3 -14 7 -8
10 6 12 4 7 -8 -6 -17 6 -30 32 -34 8 -1 18 -7 22 -15 4 -7 11 -10 14 -6 4 3
-8 32 -25 64 -57 108 -72 178 -68 322 3 112 6 134 30 185 28 60 27 68 -6 40
-21 -18 -21 -18 -3 3 9 11 14 24 10 29 -5 4 -3 5 4 1 11 -6 53 42 53 61 0 15
74 88 125 123 27 19 58 42 68 52 23 20 117 60 117 49 0 -5 -19 -16 -43 -25
-24 -9 -52 -24 -63 -34 -10 -9 -43 -35 -72 -56 -29 -21 -49 -43 -45 -48 3 -6
2 -8 -4 -5 -26 16 -99 -103 -143 -233 -20 -57 -21 -80 -17 -190 5 -134 12
-160 71 -275 34 -66 151 -205 172 -205 6 0 22 -12 37 -27 33 -35 70 -53 182
-89 119 -38 276 -40 370 -5 33 12 71 25 85 28 14 3 51 26 82 50 31 23 60 43
65 43 4 0 20 12 35 28 108 107 134 147 179 271 12 35 25 59 27 53 11 -33 -74
-210 -124 -260 -19 -19 -38 -40 -42 -46 -4 -7 -25 -25 -47 -41 -22 -17 -42
-32 -45 -35 -25 -25 -104 -68 -172 -92 -65 -23 -106 -31 -188 -35 -94 -4 -114
-2 -190 22 -47 14 -103 30 -125 36 -22 6 -44 14 -49 20 -13 12 -53 12 -61 0
-3 -5 8 -19 25 -31 25 -18 30 -19 30 -6 0 9 4 16 8 16 5 0 8 -10 8 -21 -1 -23
42 -51 97 -63 23 -6 30 -3 34 14 6 24 19 26 39 6 8 -8 26 -13 42 -11 15 2 21
2 14 -1 -6 -3 -9 -11 -5 -17 5 -8 2 -8 -9 0 -8 7 -18 10 -21 6 -4 -3 -16 2
-27 12 -19 18 -20 17 -20 -2 0 -21 28 -32 90 -34 40 -2 41 0 30 24 -11 21 -10
21 4 3 9 -10 13 -22 11 -26 -8 -12 54 -17 66 -6 9 8 10 6 6 -6 -4 -10 -2 -18
3 -18 6 0 10 6 10 13 0 8 16 12 48 12 26 0 49 3 52 7 11 15 139 35 151 24 9
-8 10 -7 4 3 -7 13 38 60 59 61 5 0 34 12 64 26 53 25 104 73 108 100 3 21 -6
17 -32 -13 -13 -16 -24 -23 -24 -17 0 6 11 21 25 34 13 12 22 28 19 34 -3 6 4
0 15 -14 20 -24 22 -24 32 -6 6 10 20 27 30 37 11 11 16 19 12 19 -5 0 0 5 10
11 19 11 40 56 64 134 8 28 19 55 24 61 5 6 6 14 3 17 -4 3 1 24 10 47 18 45
21 63 6 40 -5 -8 -10 -10 -10 -4 0 6 7 17 15 24 9 7 14 19 11 27 -3 8 -1 11 4
8 6 -4 10 8 10 29 0 25 -6 40 -20 48 -11 7 -20 17 -20 22 0 6 5 5 12 -2 17
-17 33 -15 19 2 -6 8 -11 18 -10 22 2 5 -3 28 -11 52 -9 30 -16 39 -22 30 -6
-9 -7 -6 -4 7 3 12 -3 38 -14 60 -11 22 -20 52 -20 67 0 15 -3 27 -7 27 -27
-4 -35 1 -23 16 10 12 10 15 -2 15 -16 0 -42 42 -52 83 -4 15 -12 27 -19 26
-33 -4 -49 2 -43 16 3 9 0 15 -9 15 -8 0 -15 9 -15 20 0 11 -6 20 -13 20 -8 0
-24 9 -37 20 -26 23 -34 25 -24 8 4 -7 -7 2 -25 21 -27 29 -34 32 -43 20 -8
-11 -9 -11 -4 3 5 18 -25 43 -38 31 -3 -3 -6 -1 -6 6 0 7 -4 9 -10 6 -5 -3
-22 2 -37 12 -26 16 -27 16 -14 0 17 -21 8 -22 -13 -1 -12 11 -16 12 -16 2 0
-7 -7 -3 -15 9 -9 13 -22 20 -30 17 -8 -4 -15 -2 -15 3 0 5 -8 9 -17 10 -10 0
-52 3 -93 6 -41 3 -93 2 -115 -3z m180 -129 c-4 -12 0 -21 12 -26 22 -9 71
-18 100 -19 11 -1 19 -5 16 -10 -3 -4 5 -5 18 -1 17 4 20 4 10 -3 -11 -8 -4
-15 32 -32 25 -12 68 -46 96 -75 28 -30 51 -50 51 -44 0 15 27 10 34 -6 3 -9
12 -12 23 -8 15 6 16 5 3 -9 -9 -10 -19 -13 -24 -7 -23 21 -23 7 -1 -16 14
-13 25 -31 25 -40 0 -8 5 -15 12 -15 6 0 9 -3 5 -6 -3 -4 0 -19 8 -35 25 -48
60 -209 46 -209 -11 0 -10 -104 1 -117 8 -11 7 -12 -7 -7 -14 6 -16 3 -10 -14
4 -14 2 -22 -6 -22 -9 0 -9 -3 0 -14 9 -11 9 -16 0 -21 -6 -4 -17 -23 -25 -41
-8 -19 -19 -34 -24 -34 -15 0 -12 -37 3 -43 7 -3 5 -6 -5 -6 -16 -1 -23 -12
-19 -34 1 -5 -3 -6 -8 -3 -5 4 -12 2 -16 -4 -4 -6 -11 -8 -16 -5 -15 10 -10
-7 9 -28 17 -19 16 -19 -5 -6 -18 11 -25 11 -35 1 -10 -10 -10 -14 0 -21 10
-6 10 -10 -3 -21 -13 -11 -14 -10 -8 6 6 16 4 17 -9 7 -8 -7 -19 -9 -23 -5 -5
4 -5 -1 -2 -10 4 -11 2 -15 -7 -12 -7 3 -18 -6 -25 -20 -8 -13 -21 -25 -30
-25 -62 -4 -63 -4 -57 -36 4 -24 3 -26 -5 -12 -5 9 -19 17 -30 17 -17 0 -18
-3 -9 -20 8 -14 8 -20 0 -20 -6 0 -13 6 -16 14 -6 14 -70 14 -83 0 -3 -4 2 -4
12 -1 9 4 17 5 17 3 0 -3 3 -13 6 -23 5 -15 4 -16 -5 -3 -9 12 -13 12 -19 2
-6 -9 -12 -5 -20 13 -11 24 -14 25 -28 10 -9 -8 -14 -21 -11 -29 3 -7 -2 -13
-10 -13 -10 0 -13 7 -9 24 6 21 5 22 -19 11 -28 -12 -48 -2 -25 12 9 6 10 10
3 10 -6 0 -15 -5 -18 -10 -10 -16 -155 4 -155 22 0 5 -4 7 -9 3 -5 -3 -12 -1
-15 4 -7 10 -25 9 -43 -2 -8 -5 -13 -3 -13 6 0 8 -16 22 -35 33 -19 10 -35 22
-35 26 0 5 -4 8 -10 8 -5 0 -10 -7 -10 -15 0 -8 -2 -15 -4 -15 -2 0 -13 -3
-23 -6 -16 -6 -16 -5 2 9 11 9 15 17 8 17 -7 0 -13 5 -13 11 0 5 4 8 9 4 5 -3
13 0 17 6 4 8 3 9 -4 5 -7 -4 -12 -2 -12 3 0 6 -9 11 -21 11 -11 0 -17 5 -14
10 6 10 -33 59 -46 60 -4 0 -10 -7 -13 -16 -5 -12 -2 -15 9 -10 9 3 13 2 10
-4 -3 -6 1 -10 9 -10 9 0 16 -4 16 -10 0 -5 -10 -10 -22 -10 -12 0 -18 3 -15
7 4 3 -1 11 -9 18 -14 10 -15 15 -4 35 11 20 10 25 -6 37 -21 15 -33 8 -16 -9
7 -7 12 -16 12 -22 0 -5 -9 1 -20 14 -17 20 -18 25 -5 42 14 21 10 48 -7 48
-5 0 -6 -9 -3 -20 4 -13 2 -20 -6 -20 -7 0 -10 3 -6 6 3 4 0 13 -8 21 -22 21
-18 35 6 28 16 -5 20 -3 17 6 -3 8 -12 13 -20 11 -20 -3 -33 29 -16 40 9 5 9
8 2 8 -7 0 -12 10 -13 23 -2 59 -13 133 -23 144 -6 8 -7 13 -1 13 6 0 15 25
21 56 7 31 25 83 42 115 16 33 30 64 30 70 0 6 11 25 25 41 14 17 23 33 20 36
-3 3 -6 3 -8 1 -1 -2 -17 -23 -35 -46 -17 -23 -29 -48 -26 -56 3 -8 -1 -21 -9
-29 -8 -8 -18 -24 -21 -36 -4 -12 -12 -22 -17 -22 -5 0 -9 -7 -9 -15 0 -8 -4
-15 -10 -15 -5 0 -1 20 10 44 10 24 15 48 12 52 -4 4 -1 3 7 -1 11 -6 13 -4 8
8 -3 10 -2 17 3 17 6 0 10 6 10 13 0 6 13 25 29 40 17 15 32 35 35 45 3 9 17
22 31 29 19 8 23 8 18 0 -4 -7 13 6 38 28 24 22 56 50 72 62 16 13 25 27 21
36 -3 8 0 18 6 22 6 3 10 3 9 -2 -7 -38 18 -43 62 -12 16 11 29 18 29 16 0 -3
21 1 47 9 25 8 86 15 135 16 48 1 86 4 83 6 -5 5 14 32 22 32 2 0 2 -8 -2 -19z"/>
<path d="M2201 2764 c-29 -8 -58 -17 -65 -21 -6 -4 -18 -8 -26 -10 -8 -1 -23
-12 -32 -24 -10 -11 -18 -18 -18 -15 0 14 -56 -27 -78 -57 -38 -53 -54 -73
-47 -59 3 6 4 12 1 12 -2 0 -24 -39 -47 -87 -36 -74 -44 -99 -45 -155 -2 -38
1 -68 4 -68 4 0 8 -22 8 -49 1 -38 11 -65 43 -120 23 -39 48 -71 56 -71 8 0
12 -6 9 -14 -3 -8 0 -17 7 -22 7 -4 10 -3 6 2 -3 6 9 10 29 10 29 0 34 -3 32
-20 -2 -14 2 -20 12 -18 13 3 13 1 1 -10 -11 -10 -14 -10 -18 0 -3 6 -9 10
-14 6 -5 -3 -9 -1 -9 5 0 5 6 12 13 14 7 3 5 6 -5 6 -10 1 -18 -6 -18 -14 0
-19 29 -33 65 -31 17 2 33 -1 36 -6 3 -4 18 -9 34 -10 17 -2 37 -10 47 -20 15
-15 15 -17 1 -22 -9 -4 -18 -4 -21 -1 -3 3 0 5 8 5 10 0 10 3 1 14 -8 10 -20
12 -39 7 -29 -8 -55 -4 -48 8 3 4 -5 8 -16 8 -39 3 2 -23 89 -56 62 -23 99
-31 149 -31 56 0 65 2 60 16 -4 10 -2 13 7 7 13 -8 56 -5 72 5 6 4 12 7 15 7
3 1 16 5 29 9 18 6 20 10 10 17 -11 6 -10 9 4 15 9 3 17 12 17 20 0 15 12 19
23 7 4 -3 -1 -16 -10 -27 l-18 -20 30 19 c73 45 125 101 164 175 58 111 71
221 40 350 -17 73 -99 197 -99 150 0 -6 4 -9 9 -5 6 3 15 -4 21 -15 9 -16 8
-25 -2 -38 -11 -14 -11 -15 5 -9 10 4 16 3 12 -2 -3 -5 1 -11 7 -14 9 -3 10
-8 3 -15 -6 -6 -18 -6 -30 -2 -11 5 -14 9 -7 9 10 1 10 6 -2 23 -9 12 -16 27
-16 33 0 5 4 3 10 -5 5 -8 12 -11 15 -8 11 11 -5 28 -26 28 -16 0 -19 4 -14
21 5 16 4 19 -6 14 -9 -6 -11 -2 -7 13 6 20 -20 62 -37 62 -5 0 -29 13 -54 29
-45 29 -100 46 -173 55 -30 3 -38 0 -39 -13 0 -13 -2 -12 -8 3 -7 17 -8 18
-14 3 -4 -10 -12 -14 -22 -11 -8 3 -12 10 -9 15 7 11 1 11 -65 -7z"/>
<path d="M2895 3655 c11 -8 34 -28 50 -43 17 -16 39 -35 51 -43 22 -15 247
-222 299 -275 16 -17 38 -43 48 -58 10 -14 22 -24 27 -21 5 3 25 -30 46 -72
20 -43 47 -94 60 -113 19 -30 61 -148 129 -360 42 -132 45 -157 46 -302 0 -99
4 -148 11 -148 8 0 9 53 6 173 -5 165 -7 176 -42 275 -19 57 -35 106 -35 110
1 4 1 16 -1 27 l-1 20 -10 -20 c-8 -16 -9 -15 -5 10 5 33 -20 93 -97 239 -26
50 -56 108 -65 128 -9 21 -25 41 -34 44 -10 3 -32 25 -48 50 -17 24 -35 44
-41 44 -5 0 -31 21 -57 48 -54 53 -167 164 -197 193 -56 55 -128 109 -143 109
-15 -1 -14 -2 3 -15z"/>
<path d="M1370 3482 c0 -4 -29 -38 -64 -75 -36 -36 -77 -88 -93 -114 -36 -64
-72 -116 -83 -123 -11 -7 -62 -120 -66 -148 -1 -12 -12 -38 -23 -56 -12 -18
-21 -40 -21 -47 0 -8 -13 -39 -29 -69 -44 -84 -61 -154 -60 -244 l2 -81 7 75
c9 89 27 154 69 245 17 36 31 69 31 73 1 4 9 25 20 47 11 22 19 47 20 56 0 29
32 92 97 190 23 35 58 90 79 122 20 32 49 65 63 73 29 17 77 84 61 84 -5 0
-10 -3 -10 -8z"/>
<path d="M3140 3481 c0 -5 19 -24 43 -44 23 -19 83 -75 134 -124 75 -72 99
-104 138 -178 25 -49 49 -89 54 -88 4 1 19 -31 33 -70 15 -40 36 -97 48 -127
11 -30 23 -66 25 -80 2 -14 16 -56 30 -95 15 -38 30 -83 35 -100 4 -16 13 -42
18 -57 6 -15 16 -65 23 -110 6 -46 15 -103 19 -128 l7 -45 2 57 c2 86 -18 205
-44 263 -12 29 -26 68 -30 86 -3 19 -13 48 -20 64 -7 17 -16 47 -19 68 -3 21
-17 62 -30 90 -13 29 -35 79 -47 112 -26 69 -38 87 -50 79 -5 -2 -11 8 -15 23
-9 42 -104 215 -104 189 0 -3 -24 18 -54 46 -30 29 -77 73 -106 98 -29 25 -61
53 -71 63 -10 9 -19 13 -19 8z"/>
<path d="M953 3218 c-15 -20 -121 -241 -154 -320 -17 -40 -37 -104 -44 -143
-8 -38 -22 -95 -31 -125 -9 -30 -21 -81 -27 -113 -9 -49 -14 -57 -29 -54 -10
3 -21 1 -24 -4 -3 -5 6 -9 20 -9 14 0 26 -3 26 -7 0 -23 -22 -84 -33 -90 -8
-5 -10 -23 -6 -53 l6 -45 2 50 c2 38 4 45 11 30 5 -11 9 -15 10 -10 1 6 4 19
7 30 2 11 8 43 13 70 4 28 13 68 19 90 6 22 13 51 15 65 5 25 2 -14 -10 -150
-4 -41 -4 -72 0 -69 11 11 16 50 21 171 8 192 44 323 146 538 33 69 64 133 70
143 11 20 6 23 -8 5z"/>
<path d="M1020 3004 c-6 -16 -28 -65 -50 -109 -38 -81 -71 -202 -76 -285 -1
-25 -12 -85 -23 -135 -17 -76 -20 -113 -16 -235 7 -190 23 -309 52 -379 l23
-56 -6 45 c-4 25 -10 50 -14 55 -19 25 -32 134 -37 310 -5 172 -3 198 16 274
11 46 21 98 21 115 1 69 30 186 63 257 53 112 71 159 64 165 -4 4 -11 -6 -17
-22z"/>
<path d="M3604 2990 c31 -47 76 -145 76 -167 0 -23 57 -201 70 -218 4 -5 23
-57 41 -115 30 -97 33 -115 32 -235 0 -135 -20 -283 -48 -348 -8 -20 -15 -47
-15 -59 1 -44 41 75 61 181 24 131 26 321 3 418 -8 37 -28 95 -44 128 -15 33
-30 71 -33 85 -3 14 -22 71 -41 128 -20 57 -36 112 -36 123 0 11 -19 39 -41
62 -23 23 -34 31 -25 17z"/>
<path d="M3788 2255 c-6 -152 -24 -276 -48 -339 -6 -16 -15 -60 -20 -98 -6
-38 -17 -82 -25 -98 -8 -16 -15 -46 -15 -67 0 -38 -50 -174 -75 -203 -7 -8
-16 -26 -20 -40 -6 -21 -3 -20 19 10 35 48 61 105 75 170 7 30 22 78 33 105
12 28 22 68 23 90 0 22 5 54 9 70 4 17 16 64 26 105 27 105 45 320 33 395 -8
55 -10 47 -15 -100z"/>
<path d="M1160 1445 c0 -21 37 -64 104 -121 38 -32 85 -74 104 -91 19 -18 40
-33 46 -33 7 0 25 -15 42 -33 36 -37 252 -147 290 -147 14 0 23 -4 20 -9 -7
-11 245 -81 292 -80 35 1 33 2 -18 14 -107 25 -215 57 -259 76 -24 10 -48 19
-53 19 -5 0 -33 11 -61 24 -29 13 -78 35 -109 49 -57 25 -78 45 -38 34 11 -3
20 -1 20 4 0 4 7 6 16 2 12 -4 12 -8 3 -13 -18 -12 27 -33 53 -24 15 5 19 3
13 -7 -5 -8 -5 -11 0 -7 4 4 14 3 22 -3 7 -6 13 -8 13 -3 0 5 4 4 8 -1 9 -14
161 -79 167 -73 7 7 -141 79 -166 81 -10 1 -19 4 -19 8 0 4 -25 19 -56 35 -30
15 -57 32 -60 36 -3 4 -10 8 -17 8 -6 0 -2 -7 9 -15 23 -18 2 -20 -29 -3 -20
10 -21 10 -8 -5 8 -11 9 -17 2 -17 -6 0 -18 11 -27 25 -9 13 -25 27 -36 31
-11 3 -37 21 -57 39 -20 18 -67 60 -105 94 -38 33 -77 72 -87 88 -11 15 -19
24 -19 18z"/>
<path d="M2845 1089 c-38 -17 -92 -38 -120 -46 -27 -9 -44 -18 -37 -20 7 -3
33 2 59 11 25 9 49 14 51 11 6 -6 -4 -9 -97 -34 -40 -11 -78 -25 -85 -30 -16
-13 -130 -42 -163 -41 -15 1 -91 1 -168 0 -88 0 -141 3 -143 10 -2 5 -13 10
-25 10 -12 0 -60 12 -106 25 -78 23 -131 32 -120 20 10 -10 180 -55 207 -55
15 0 33 -5 40 -12 17 -17 353 -14 417 5 140 41 290 107 311 136 7 8 27 21 45
27 19 7 27 13 19 13 -8 0 -46 -13 -85 -30z"/>
</g>
</svg>
