<?xml version="1.0" encoding="utf-8"?>
<!-- Generator: Adobe Illustrator 26.0.3, SVG Export Plug-In . SVG Version: 6.00 Build 0)  -->
<svg version="1.0" id="katman_1" xmlns="http://www.w3.org/2000/svg" xmlns:xlink="http://www.w3.org/1999/xlink" x="0px" y="0px"
	 viewBox="0 0 800 600" style="background-color: white" xml:space="preserve">
<style type="text/css">
	.st0{fill:url(#SVGID_1_);}
</style>
<linearGradient id="SVGID_1_" gradientUnits="userSpaceOnUse" x1="749.6768" y1="300.7401" x2="92.1675" y2="307.545" gradientTransform="matrix(1 0 0 -1 -20.9449 604.3622)">
	<stop  offset="0" style="stop-color:#A12AEA"/>
	<stop  offset="0.464" style="stop-color:#DA44D6"/>
	<stop  offset="1" style="stop-color:#FD9C54"/>
</linearGradient>
<path class="st0" d="M545,405.3c-2.7,0-5.3-1.1-7.2-3c-1.9-1.9-3-4.5-3-7.2v-191c0-1.7,0.4-3.3,1.2-4.8c0.8-1.5,1.9-2.8,3.3-3.7
	c1.4-0.9,3-1.5,4.7-1.7c1.7-0.2,3.4,0.1,4.9,0.7c1.9,0.8,3.5,2.1,4.6,3.8c1.1,1.7,1.7,3.7,1.7,5.7v191c0,2.7-1.1,5.3-3,7.2
	C550.3,404.2,547.7,405.3,545,405.3z M719.9,378.5c1.1-1.3,1.9-2.8,2.2-4.5c0.4-1.6,0.3-3.4-0.2-5c-0.5-1.6-1.3-3.1-2.5-4.3
	c-1.2-1.2-2.6-2.1-4.2-2.6c-1.9-0.6-4-0.7-5.9-0.1c-1.9,0.6-3.7,1.7-5,3.2c-10.6,12.4-26.4,19.6-43.4,19.6
	c-28.2,0-51.1-22.9-51.1-51.2c0-28.2,22.9-51.1,51.1-51.1c22.9,0,42.1,16.5,46.2,38.2h-62.6c-2.7,0-5.3,1.1-7.2,3
	c-1.9,1.9-3,4.5-3,7.2c0,2.7,1.1,5.3,3,7.2c1.9,1.9,4.5,3,7.2,3h73.7c2.7,0,5.3-1.1,7.2-3c1-0.9,1.7-2.1,2.2-3.3
	c0.5-1.2,0.8-2.6,0.8-3.9v-1.4c0-37.2-30.3-67.5-67.5-67.5c-39.5,0-71.6,32.1-71.6,71.6s32.1,71.6,71.6,71.6
	C684,405.3,705.5,395.5,719.9,378.5L719.9,378.5z M500.6,395.1v-65.5c0-37.2-30.3-67.5-67.5-67.5c-39.5,0-71.6,32.1-71.6,71.6
	c0,39.5,32.1,71.6,71.6,71.6c1.4,0,2.7-0.2,4-0.7c1.3-0.5,2.4-1.2,3.4-2.2c1-1,1.7-2.1,2.3-3.3c0.5-1.3,0.8-2.6,0.8-4
	s-0.3-2.7-0.8-4c-0.5-1.3-1.3-2.4-2.3-3.3c-1-1-2.1-1.7-3.4-2.2c-1.3-0.5-2.6-0.7-4-0.7c-28.2,0-51.2-22.9-51.2-51.2
	c0-28.2,22.9-51.1,51.2-51.1c25.9,0,47.1,21.1,47.1,47.1v65.5c0,1.3,0.3,2.7,0.8,3.9c0.5,1.2,1.3,2.4,2.2,3.3c1,1,2.1,1.7,3.3,2.2
	c1.2,0.5,2.6,0.8,3.9,0.8c1.3,0,2.7-0.3,3.9-0.8c1.2-0.5,2.4-1.3,3.3-2.2c0.9-1,1.7-2.1,2.2-3.3
	C500.4,397.8,500.7,396.4,500.6,395.1L500.6,395.1z M191,364.4c0-10-3.7-23.6-21.1-31.8c-10.5-4.9-23.6-6.9-36.4-8.9
	c-29.8-4.6-40.4-8.4-40.4-20.7c0-13.4,18.6-20.5,37-20.5c11.6,0,28.3,2.3,41.8,13.5c1,0.9,2.2,1.5,3.5,1.9c1.3,0.4,2.6,0.5,4,0.4
	c1.3-0.1,2.6-0.5,3.8-1.2c1.2-0.6,2.2-1.5,3.1-2.5c0.9-1,1.5-2.2,1.9-3.5c0.4-1.3,0.5-2.6,0.4-4c-0.1-1.3-0.5-2.6-1.2-3.8
	s-1.5-2.2-2.5-3.1c-18.2-15-39.9-18.1-54.8-18.1c-39.5,0-57.5,21.2-57.5,40.9c0,10.1,3.7,23.8,21.2,32c10.5,5,23.8,7,36.5,8.9
	c29.6,4.5,40.1,8.3,40.1,20.4c0,12.2-14.6,20.5-36.4,20.5c-22.3,0-39.2-9-47.4-14.4c-2.3-1.4-5-1.8-7.6-1.2
	c-2.6,0.6-4.8,2.1-6.3,4.3c-1.5,2.2-2,4.9-1.5,7.5c0.5,2.6,1.9,4.9,4.1,6.5c17.3,11.5,38.2,17.8,58.6,17.8
	C173.4,405.3,191,384.8,191,364.4L191,364.4z M339.3,375.1c1.5-2.3,2-5,1.5-7.7c-0.5-2.7-2.1-5-4.4-6.5c-2.3-1.5-5-2-7.7-1.5
	c-2.7,0.5-5,2.1-6.5,4.4c-4.3,6.5-10.1,11.8-17,15.5c-6.8,3.7-14.5,5.6-22.3,5.6c-28.2,0-51.1-22.9-51.1-51.2
	c0-28.2,22.9-51.1,51.1-51.1c15.8,0,30.5,7.9,39.2,21.1c0.7,1.1,1.7,2.1,2.8,2.8c1.1,0.7,2.4,1.3,3.7,1.5c1.3,0.3,2.7,0.3,4,0
	s2.6-0.8,3.7-1.5c1.1-0.7,2.1-1.7,2.8-2.8c0.7-1.1,1.3-2.4,1.5-3.7c0.3-1.3,0.3-2.7,0-4s-0.8-2.6-1.5-3.7
	c-6.2-9.3-14.5-16.9-24.3-22.2c-9.8-5.3-20.8-8-31.9-8c-39.5,0-71.6,32.1-71.6,71.6c0,39.5,32.1,71.6,71.6,71.6
	c11.1,0,22.1-2.7,31.9-8C324.8,392,333.2,384.4,339.3,375.1L339.3,375.1z"/>
</svg>
